<?xml version="1.0" encoding="utf-8"?>
<!-- Generator: Adobe Illustrator 26.3.1, SVG Export Plug-In . SVG Version: 6.00 Build 0)  -->
<svg version="1.1" id="Layer_1" xmlns="http://www.w3.org/2000/svg" xmlns:xlink="http://www.w3.org/1999/xlink" x="0px" y="0px"
	 viewBox="0 0 200.2 66.6" style="enable-background:new 0 0 200.2 66.6;" xml:space="preserve">
<style type="text/css">
	.st0{fill:#001A72;}
	.st1{fill:#0072CE;}
	.st2{fill:#061A73;}
</style>
<g>
	<path class="st0" d="M150.8,26.8h-5.3v25.3h5.3V26.8z M51.8,52.1h5.3V26.8h-5.3V52.1z M81.3,52.1h5.3V36.8
		c0-6.3-4.1-10.7-10.2-10.7c-3.8,0-6.7,1.4-8.8,3.8v-3.1h-5.3v25.3h5.3V40.4c0-6.4,3-9.4,7.6-9.4c3.6,0,6,2.8,6,6.9V52.1z
		 M95.7,33.7c0-1.8,1.4-3.3,4.5-3.3c3.3,0,5.4,1.7,5.8,4.1l5.1-1.1c-0.9-4.2-4.8-7.3-10.7-7.3c-6.1,0-10,3.3-10,8
		c0,3.6,2.5,5.9,6.9,6.9l5.5,1.1c2.3,0.5,3.4,1.5,3.4,3c0,2-1.9,3.4-5,3.4c-3.3,0-6-1.3-6.3-4.3l-5.3,1.1c0.7,5.1,5.5,7.5,11.2,7.5
		c6.3,0,10.7-2.9,10.7-8.2c0-3.6-2.5-6-6.6-6.8l-6-1.3C96.5,36,95.7,35.1,95.7,33.7 M136.8,39.5c0,5.3-3.6,8.7-8.3,8.7
		c-4.2,0-8.3-3.3-8.3-8.7c0-5.3,4.1-8.7,8.3-8.7C133.2,30.8,136.8,34.2,136.8,39.5 M142,39.5c0-8-6-13.4-12.6-13.4
		c-3.8,0-6.9,1.3-9.2,3.6v-2.9H115v35.5h5.3V49.3c2.2,2.2,5.3,3.6,9.2,3.6C136,52.8,142,47.5,142,39.5 M172.5,31.8l0.4-5.1
		c-0.7-0.2-1.2-0.2-1.8-0.2c-4.4,0-7.6,2.4-9.6,5.7v-5.4h-5.3v25.3h5.3v-8.9c0-6.9,3.2-11.4,9.6-11.4
		C171.5,31.8,172.1,31.8,172.5,31.8 M193,37h-14.9c0.8-4.1,4.4-6.2,7.7-6.2C189.3,30.8,192.2,32.8,193,37 M198.4,40.7v-1.8
		c-0.3-7.6-5.9-12.8-12.6-12.8c-7.1,0-13.1,5.4-13.1,13.4c0,8,6,13.3,12.9,13.3c5.6,0,10.1-2.7,12.2-8l-4.7-1
		c-1.8,3.6-4.6,4.4-7.4,4.4c-3.7,0-7.1-2.8-7.6-7.5L198.4,40.7L198.4,40.7z"/>
	<path class="st1" d="M30.4,17.6c-1.4-0.7-2.7-2.1-2.7-3.8c-0.1-1.5,1.9-2,2.8-1.1C31.8,13.8,31.1,16.3,30.4,17.6z M41.8,18.2
		c4.3-5.6,9-10,13.5-12.4c0.6-0.3,1-0.5,1.4-0.6C56.5,10.9,47.6,16.8,41.8,18.2z M20.6,22c-7.9-0.3-15-4.8-16.3-7.5
		c2-0.1,4,0.5,5.9,1.1C14.1,17,17.6,19.3,20.6,22z M30.5,29.3c-0.9-1.6-1.9-3.3-3-4.8c1.6-0.6,3-1.5,4.1-2.7
		c1.1,0.3,2.2,0.4,3.3,0.5C34,23.5,31.5,27.5,30.5,29.3z M26.8,37.2c-3.2,7.5-5.2,15-5.8,21.2c-0.2,3.5,1.3,4.9,3.2,5
		c3.5,0,7.1-5.3,9.1-13.3c1.4-5.4,1-11.3-1-16.8c0,0,5.3-9.4,6.9-11l0.1-0.1c4.5-0.6,9.7-2.1,15.6-7.3c4.4-3.9,6.4-9.3,4.6-11.9
		c-4.4-5.9-18.7,9.8-22.7,15.9c-1.1,0-2.1,0-3.1-0.2c1.5-3.3,1.3-7.6-1.8-9.2c-1.2-0.7-2.6-0.8-3.9-0.5c-3,0.7-4.5,3.5-3.7,6.5
		c0.4,1.9,1.8,3.6,3.6,4.8c-0.9,0.6-1.8,1-2.9,1.3C20,16,13.3,12.2,6.8,11.2c-1-0.2-4.1-0.7-5.6,1.2c-0.4,0.6-1,1.8-0.1,3.6
		c3.4,6.1,14.2,10.3,22.7,9.4c1.6,1.9,2.9,4,4,6.2c1.2,2.3,2,4.8,2.5,7.4c0.6,3.5,0.5,6.9-0.3,10.2c-1.7,6.3-3.6,9.3-5.4,10.5
		c0-0.4,0-0.8,0-1.1c0.3-3.9,1.4-8.4,3-13.4C27.7,42.6,27.5,39.8,26.8,37.2"/>
</g>
<g>
	<path class="st2" d="M195,18.7h-0.9v2.6h-0.5v-2.6h-0.9v-0.5h2.3L195,18.7z"/>
	<path class="st2" d="M198.4,21.3h-0.5v-2.2l-1,1.6h-0.1l-1-1.6v2.2h-0.5v-3.1h0.6l1,1.6l1-1.6h0.6V21.3z"/>
</g>
</svg>
